<svg width="27" height="24" viewBox="0 0 27 24" fill="none" xmlns="http://www.w3.org/2000/svg">
<path d="M13.3333 8C10.4427 8 8 10.4427 8 13.3333C8 16.224 10.4427 18.6667 13.3333 18.6667C16.224 18.6667 18.6667 16.224 18.6667 13.3333C18.6667 10.4427 16.224 8 13.3333 8ZM13.3333 16C11.9133 16 10.6667 14.7533 10.6667 13.3333C10.6667 11.9133 11.9133 10.6667 13.3333 10.6667C14.7533 10.6667 16 11.9133 16 13.3333C16 14.7533 14.7533 16 13.3333 16Z" fill="white"/>
<path d="M24 4H20.552L16.9427 0.390668C16.8191 0.266611 16.6721 0.168228 16.5104 0.101181C16.3486 0.0341335 16.1751 -0.000252599 16 1.3969e-06H10.6667C10.4915 -0.000252599 10.3181 0.0341335 10.1563 0.101181C9.99453 0.168228 9.84761 0.266611 9.724 0.390668L6.11467 4H2.66667C1.196 4 0 5.196 0 6.66667V21.3333C0 22.804 1.196 24 2.66667 24H24C25.4707 24 26.6667 22.804 26.6667 21.3333V6.66667C26.6667 5.196 25.4707 4 24 4ZM2.66667 21.3333V6.66667H6.66667C7.02133 6.66667 7.36 6.52667 7.60933 6.276L11.2187 2.66667H15.448L19.0573 6.276C19.1809 6.40006 19.3279 6.49844 19.4896 6.56549C19.6514 6.63254 19.8249 6.66692 20 6.66667H24L24.0027 21.3333H2.66667Z" fill="white"/>
</svg>
