<svg width="52" height="52" viewBox="0 0 52 52" fill="none" xmlns="http://www.w3.org/2000/svg">
<path d="M26.4448 22.6666C24.3972 22.6666 22.667 24.3968 22.667 26.4444C22.667 28.492 24.3972 30.2222 26.4448 30.2222C28.4923 30.2222 30.2225 28.492 30.2225 26.4444C30.2225 24.3968 28.4923 22.6666 26.4448 22.6666ZM26.4448 28.3333C25.4389 28.3333 24.5559 27.4502 24.5559 26.4444C24.5559 25.4386 25.4389 24.5555 26.4448 24.5555C27.4506 24.5555 28.3337 25.4386 28.3337 26.4444C28.3337 27.4502 27.4506 28.3333 26.4448 28.3333Z" fill="white"/>
<path d="M34 19.8333H31.5577L29.0011 17.2767C28.9135 17.1888 28.8094 17.1192 28.6948 17.0717C28.5802 17.0242 28.4574 16.9998 28.3333 17H24.5556C24.4315 16.9998 24.3087 17.0242 24.1941 17.0717C24.0795 17.1192 23.9754 17.1888 23.8878 17.2767L21.3312 19.8333H18.8889C17.8472 19.8333 17 20.6805 17 21.7222V32.1111C17 33.1528 17.8472 34 18.8889 34H34C35.0417 34 35.8889 33.1528 35.8889 32.1111V21.7222C35.8889 20.6805 35.0417 19.8333 34 19.8333ZM18.8889 32.1111V21.7222H21.7222C21.9734 21.7222 22.2133 21.6231 22.3899 21.4455L24.9466 18.8889H27.9423L30.4989 21.4455C30.5865 21.5334 30.6906 21.6031 30.8052 21.6506C30.9198 21.698 31.0426 21.7224 31.1667 21.7222H34L34.0019 32.1111H18.8889Z" fill="white"/>
<circle cx="26" cy="26" r="25" stroke="white" stroke-width="2"/>
</svg>
