<svg width="52" height="52" viewBox="0 0 52 52" fill="none" xmlns="http://www.w3.org/2000/svg">
<circle cx="26" cy="26" r="25" stroke="white" stroke-width="2"/>
<path d="M21.6719 25.2188C22.5262 25.2188 23.2187 24.5262 23.2187 23.6719C23.2187 22.8176 22.5262 22.125 21.6719 22.125C20.8176 22.125 20.125 22.8176 20.125 23.6719C20.125 24.5262 20.8176 25.2188 21.6719 25.2188Z" fill="white"/>
<path d="M24.7656 28.3125L23.2187 26.25L20.125 30.375H32.5L27.8594 24.1875L24.7656 28.3125Z" fill="white"/>
<path d="M34.5625 18H18.0625C16.925 18 16 18.925 16 20.0625V32.4375C16 33.575 16.925 34.5 18.0625 34.5H34.5625C35.7 34.5 36.625 33.575 36.625 32.4375V20.0625C36.625 18.925 35.7 18 34.5625 18ZM18.0625 32.4375V20.0625H34.5625L34.5646 32.4375H18.0625Z" fill="white"/>
</svg>
