<svg width="30" height="30" viewBox="0 0 30 30" fill="none" xmlns="http://www.w3.org/2000/svg">
<path fill-rule="evenodd" clip-rule="evenodd" d="M22.4398 24.1665C20.4075 25.8202 17.8146 26.8115 14.9902 26.8115C12.1737 26.8115 9.58744 25.8257 7.55764 24.1803L7.96721 22.1325C8.1425 21.256 8.91203 20.6252 9.8058 20.6252H10.8075C10.953 20.6252 11.0966 20.6591 11.2267 20.7241L12.0653 21.1434C13.9128 22.0672 16.0874 22.0672 17.9349 21.1434L18.7735 20.7241C18.9036 20.6591 19.0472 20.6252 19.1927 20.6252H20.1944C21.0882 20.6252 21.8577 21.256 22.033 22.1325L22.4398 24.1665ZM24.0374 22.5939L23.8716 21.7647C23.521 20.0119 21.982 18.7502 20.1944 18.7502H19.1927C18.7561 18.7502 18.3255 18.8518 17.9349 19.0471L17.0964 19.4664C15.7768 20.1262 14.2235 20.1262 12.9038 19.4664L12.0653 19.0471C11.6747 18.8518 11.2441 18.7502 10.8075 18.7502H9.8058C8.01825 18.7502 6.47919 20.0119 6.12863 21.7647L5.959 22.6128C4.22425 20.557 3.17871 17.9006 3.17871 15C3.17871 8.47669 8.46691 3.18849 14.9902 3.18849C21.5136 3.18849 26.8018 8.47669 26.8018 15C26.8018 17.8917 25.7626 20.5407 24.0374 22.5939ZM28.6768 15C28.6768 22.5589 22.5491 28.6865 14.9902 28.6865C7.43138 28.6865 1.30371 22.5589 1.30371 15C1.30371 7.44116 7.43138 1.31349 14.9902 1.31349C22.5491 1.31349 28.6768 7.44116 28.6768 15ZM18.7501 11.2502C18.7501 13.3212 17.0712 15.0002 15.0001 15.0002C12.929 15.0002 11.2501 13.3212 11.2501 11.2502C11.2501 9.1791 12.929 7.50017 15.0001 7.50017C17.0712 7.50017 18.7501 9.1791 18.7501 11.2502ZM20.6251 11.2502C20.6251 14.3568 18.1067 16.8752 15.0001 16.8752C11.8935 16.8752 9.3751 14.3568 9.3751 11.2502C9.3751 8.14357 11.8935 5.62517 15.0001 5.62517C18.1067 5.62517 20.6251 8.14357 20.6251 11.2502Z" fill="white"/>
</svg>
